<?xml version="1.0" encoding="UTF-8"?>
<svg id="Layer_2" xmlns="http://www.w3.org/2000/svg" viewBox="0 0 285.94 130.73">
  <defs>
    <style>
      .cls-1 {
        fill: #00bdff;
      }

      .cls-2 {
        font-family: Poppins-Regular, Poppins;
        font-size: 13.36px;
        letter-spacing: .1em;
        opacity: .93;
      }

      .cls-3 {
        font-family: Termina-Bold, Termina;
        font-size: 47.99px;
        font-weight: 700;
      }

      .cls-4 {
        fill: #5cff98;
      }

      .cls-5 {
        fill: #55d6ff;
      }
    </style>
  </defs>
  <g id="BACKGROUND">
    <text class="cls-2" transform="translate(14.8 123.09)"><tspan x="0" y="0">Perfect Export Solution</tspan></text>
    <g>
      <polygon class="cls-5" points="166.33 31.57 71.64 60.71 148.44 43.65 150.29 50.99 166.33 31.57"/>
      <polygon class="cls-5" points="128.1 25.15 76.86 48.37 115.95 26.74 113.98 22.92 128.1 25.15"/>
      <polygon class="cls-4" points="41.56 67.26 169.94 26.56 174.17 37.46 196.75 5.38 159.63 0 163.8 10.74 41.56 67.26"/>
      <path class="cls-1" d="M82.46,61.55c-.06-.45-.48-.77-.93-.7-.45.06-.77.48-.7.93.21,1.54.31,3.1.35,4.66h-13.05c-.02-1.46-.07-2.93-.19-4.37-.04-.45-.44-.79-.89-.76-.45.04-.79.43-.75.89.11,1.39.17,2.81.18,4.24h-24.23v-10.27c12.83-.16,24.78-4.13,32.41-10.74.32.49.65.97.95,1.48.23.39.74.51,1.13.28.39-.23.52-.74.29-1.13-.37-.62-.77-1.22-1.17-1.82.11-.29.06-.62-.16-.86-.17-.18-.39-.26-.62-.25-3.25-4.51-7.35-8.28-12.01-11.13-.11-.13-.25-.21-.42-.25-6.34-3.78-13.66-5.91-21.22-5.91s-15.09,2.17-21.33,5.93c-.04.02-.08.04-.12.07-4.95,3.01-9.22,7.03-12.53,11.77-.01.01-.03.02-.04.03-.05.05-.07.11-.1.17-4.6,6.67-7.31,14.76-7.31,23.46,0,1.41.07,2.84.21,4.23.04.42.4.74.82.74.03,0,.06,0,.09,0,.45-.05.78-.45.73-.9-.11-1.07-.16-2.16-.18-3.25h3.08c.46,0,.82-.37.82-.82s-.37-.82-.82-.82H1.67c.16-7.74,2.54-14.95,6.53-21.01,2.47,2.14,5.39,3.99,8.65,5.54-.86,3.17-1.5,6.55-1.84,10.11-.04.45.29.85.74.9.03,0,.05,0,.08,0,.42,0,.78-.32.82-.74.32-3.35.93-6.55,1.75-9.56,6.51,2.8,14.2,4.39,22.21,4.49v10.27h-11.68c-.46,0-.82.37-.82.82s.37.82.82.82h11.68v39.78c0,.46.37.82.82.82s.82-.37.82-.82v-39.78h24.22c-.01,1.1-.04,2.2-.11,3.27-.03.45.32.85.77.87.02,0,.04,0,.05,0,.43,0,.79-.33.82-.77.07-1.11.09-2.25.11-3.38h13.07c-.02,1.09-.08,2.17-.18,3.25-.05.45.28.86.73.9.03,0,.06,0,.09,0,.42,0,.78-.32.82-.74.14-1.4.21-2.82.21-4.23,0-1.91-.13-3.83-.39-5.71ZM42.25,27.53c4.62.24,9.04,2.51,12.8,6.38-4.09.94-8.41,1.45-12.8,1.5v-7.89ZM40.6,35.42c-4.37-.06-8.67-.56-12.73-1.49,3.73-3.84,8.1-6.14,12.73-6.39v7.88ZM42.25,37.06c4.84-.06,9.59-.66,14.06-1.77,3.24,3.79,5.91,8.83,7.71,14.79-6.33,2.76-13.87,4.34-21.77,4.44v-17.46ZM73.72,44.06c-2.33,2.05-5.1,3.83-8.19,5.32-1.78-5.77-4.36-10.7-7.48-14.54,1.45-.41,2.87-.88,4.25-1.39,4.43,2.73,8.33,6.32,11.43,10.61ZM60.43,32.37c-1.17.4-2.36.77-3.58,1.09-1.75-1.91-3.64-3.51-5.64-4.73,3.22.83,6.31,2.05,9.22,3.64ZM25.91,33.44c-1.2-.32-2.38-.69-3.53-1.09,2.87-1.57,5.95-2.8,9.19-3.63-2.02,1.22-3.92,2.8-5.66,4.72ZM9.14,44.07c3.06-4.24,6.93-7.87,11.38-10.63,1.37.52,2.78.98,4.22,1.39-3.13,3.86-5.69,8.81-7.44,14.55-3.09-1.49-5.84-3.27-8.17-5.31ZM18.85,50.09c1.8-5.88,4.47-10.95,7.75-14.78,4.45,1.1,9.19,1.7,14.01,1.76v17.46c-7.88-.1-15.42-1.67-21.75-4.43Z"/>
      <text class="cls-3" transform="translate(1 106.68)"><tspan x="0" y="0">TRIOGEN</tspan></text>
    </g>
  </g>
</svg>